<mxfile host="app.diagrams.net" modified="2021-09-24T08:57:52.278Z" agent="5.0 (Windows NT 6.1; Win64; x64) AppleWebKit/537.36 (KHTML, like Gecko) Chrome/93.0.4577.82 Safari/537.36" etag="4y3KASoF4wigJ6IeGWfv" version="15.3.1" type="github">
  <diagram id="3UB6iUkhvwP7FIjgg6np" name="Page-1">
    <mxGraphModel dx="1021" dy="567" grid="1" gridSize="10" guides="1" tooltips="1" connect="1" arrows="1" fold="1" page="1" pageScale="1" pageWidth="850" pageHeight="1100" math="0" shadow="0">
      <root>
        <mxCell id="0" />
        <mxCell id="1" parent="0" />
        <mxCell id="N3xLJ3Cg8tny1ivTJ4zS-3" value="" style="edgeStyle=orthogonalEdgeStyle;rounded=0;orthogonalLoop=1;jettySize=auto;html=1;" parent="1" source="N3xLJ3Cg8tny1ivTJ4zS-1" target="N3xLJ3Cg8tny1ivTJ4zS-2" edge="1">
          <mxGeometry relative="1" as="geometry" />
        </mxCell>
        <mxCell id="N3xLJ3Cg8tny1ivTJ4zS-1" value="Admin" style="rounded=0;whiteSpace=wrap;html=1;" parent="1" vertex="1">
          <mxGeometry x="365" y="110" width="120" height="60" as="geometry" />
        </mxCell>
        <mxCell id="N3xLJ3Cg8tny1ivTJ4zS-5" value="" style="edgeStyle=orthogonalEdgeStyle;rounded=0;orthogonalLoop=1;jettySize=auto;html=1;" parent="1" source="N3xLJ3Cg8tny1ivTJ4zS-2" target="N3xLJ3Cg8tny1ivTJ4zS-4" edge="1">
          <mxGeometry relative="1" as="geometry" />
        </mxCell>
        <mxCell id="N3xLJ3Cg8tny1ivTJ4zS-2" value="Login" style="whiteSpace=wrap;html=1;rounded=0;" parent="1" vertex="1">
          <mxGeometry x="365" y="250" width="120" height="60" as="geometry" />
        </mxCell>
        <mxCell id="N3xLJ3Cg8tny1ivTJ4zS-33" style="edgeStyle=orthogonalEdgeStyle;rounded=0;orthogonalLoop=1;jettySize=auto;html=1;startArrow=none;startFill=0;endArrow=none;endFill=0;" parent="1" source="N3xLJ3Cg8tny1ivTJ4zS-4" edge="1">
          <mxGeometry relative="1" as="geometry">
            <mxPoint x="425" y="500" as="targetPoint" />
          </mxGeometry>
        </mxCell>
        <mxCell id="N3xLJ3Cg8tny1ivTJ4zS-4" value="Dashboard" style="whiteSpace=wrap;html=1;rounded=0;" parent="1" vertex="1">
          <mxGeometry x="365" y="390" width="120" height="60" as="geometry" />
        </mxCell>
        <mxCell id="N3xLJ3Cg8tny1ivTJ4zS-6" value="" style="endArrow=none;html=1;" parent="1" edge="1">
          <mxGeometry width="50" height="50" relative="1" as="geometry">
            <mxPoint x="240" y="500" as="sourcePoint" />
            <mxPoint x="630" y="500" as="targetPoint" />
          </mxGeometry>
        </mxCell>
        <mxCell id="N3xLJ3Cg8tny1ivTJ4zS-15" style="edgeStyle=orthogonalEdgeStyle;rounded=0;orthogonalLoop=1;jettySize=auto;html=1;entryX=0;entryY=0.5;entryDx=0;entryDy=0;startArrow=classic;startFill=1;endArrow=classic;endFill=1;" parent="1" source="N3xLJ3Cg8tny1ivTJ4zS-8" target="N3xLJ3Cg8tny1ivTJ4zS-10" edge="1">
          <mxGeometry relative="1" as="geometry" />
        </mxCell>
        <mxCell id="N3xLJ3Cg8tny1ivTJ4zS-34" style="edgeStyle=orthogonalEdgeStyle;rounded=0;orthogonalLoop=1;jettySize=auto;html=1;startArrow=classic;startFill=1;endArrow=classic;endFill=1;" parent="1" source="N3xLJ3Cg8tny1ivTJ4zS-8" edge="1">
          <mxGeometry relative="1" as="geometry">
            <mxPoint x="450" y="500" as="targetPoint" />
          </mxGeometry>
        </mxCell>
        <mxCell id="N3xLJ3Cg8tny1ivTJ4zS-35" style="edgeStyle=orthogonalEdgeStyle;rounded=0;orthogonalLoop=1;jettySize=auto;html=1;startArrow=none;startFill=0;endArrow=none;endFill=0;" parent="1" source="N3xLJ3Cg8tny1ivTJ4zS-8" edge="1">
          <mxGeometry relative="1" as="geometry">
            <mxPoint x="450" y="640" as="targetPoint" />
          </mxGeometry>
        </mxCell>
        <mxCell id="N3xLJ3Cg8tny1ivTJ4zS-8" value="Data Mahasiswa" style="rounded=0;whiteSpace=wrap;html=1;" parent="1" vertex="1">
          <mxGeometry x="390" y="550" width="120" height="60" as="geometry" />
        </mxCell>
        <mxCell id="N3xLJ3Cg8tny1ivTJ4zS-12" style="edgeStyle=orthogonalEdgeStyle;rounded=0;orthogonalLoop=1;jettySize=auto;html=1;startArrow=classic;startFill=1;endArrow=classic;endFill=1;" parent="1" source="N3xLJ3Cg8tny1ivTJ4zS-9" edge="1">
          <mxGeometry relative="1" as="geometry">
            <mxPoint x="240" y="500" as="targetPoint" />
          </mxGeometry>
        </mxCell>
        <mxCell id="N3xLJ3Cg8tny1ivTJ4zS-14" style="edgeStyle=orthogonalEdgeStyle;rounded=0;orthogonalLoop=1;jettySize=auto;html=1;startArrow=classic;startFill=1;endArrow=classic;endFill=1;entryX=0;entryY=0.5;entryDx=0;entryDy=0;" parent="1" source="N3xLJ3Cg8tny1ivTJ4zS-9" target="N3xLJ3Cg8tny1ivTJ4zS-8" edge="1">
          <mxGeometry relative="1" as="geometry">
            <mxPoint x="360" y="580" as="targetPoint" />
          </mxGeometry>
        </mxCell>
        <mxCell id="N3xLJ3Cg8tny1ivTJ4zS-19" style="edgeStyle=orthogonalEdgeStyle;rounded=0;orthogonalLoop=1;jettySize=auto;html=1;startArrow=none;startFill=0;endArrow=none;endFill=0;" parent="1" source="N3xLJ3Cg8tny1ivTJ4zS-9" edge="1">
          <mxGeometry relative="1" as="geometry">
            <mxPoint x="240" y="639.9999999999999" as="targetPoint" />
          </mxGeometry>
        </mxCell>
        <mxCell id="N3xLJ3Cg8tny1ivTJ4zS-9" value="Data Mata Kuliah" style="rounded=0;whiteSpace=wrap;html=1;" parent="1" vertex="1">
          <mxGeometry x="180" y="550" width="120" height="60" as="geometry" />
        </mxCell>
        <mxCell id="N3xLJ3Cg8tny1ivTJ4zS-11" style="edgeStyle=orthogonalEdgeStyle;rounded=0;orthogonalLoop=1;jettySize=auto;html=1;startArrow=classic;startFill=1;endArrow=none;endFill=0;" parent="1" source="N3xLJ3Cg8tny1ivTJ4zS-10" edge="1">
          <mxGeometry relative="1" as="geometry">
            <mxPoint x="630" y="500" as="targetPoint" />
          </mxGeometry>
        </mxCell>
        <mxCell id="N3xLJ3Cg8tny1ivTJ4zS-17" style="edgeStyle=orthogonalEdgeStyle;rounded=0;orthogonalLoop=1;jettySize=auto;html=1;entryX=1;entryY=0.25;entryDx=0;entryDy=0;startArrow=none;startFill=0;endArrow=classic;endFill=1;" parent="1" source="N3xLJ3Cg8tny1ivTJ4zS-10" target="N3xLJ3Cg8tny1ivTJ4zS-2" edge="1">
          <mxGeometry relative="1" as="geometry">
            <Array as="points">
              <mxPoint x="710" y="580" />
              <mxPoint x="710" y="265" />
            </Array>
          </mxGeometry>
        </mxCell>
        <mxCell id="N3xLJ3Cg8tny1ivTJ4zS-10" value="Logout" style="rounded=0;whiteSpace=wrap;html=1;" parent="1" vertex="1">
          <mxGeometry x="570" y="550" width="120" height="60" as="geometry" />
        </mxCell>
        <mxCell id="N3xLJ3Cg8tny1ivTJ4zS-18" value="" style="endArrow=none;html=1;" parent="1" edge="1">
          <mxGeometry width="50" height="50" relative="1" as="geometry">
            <mxPoint x="170" y="640" as="sourcePoint" />
            <mxPoint x="310" y="640" as="targetPoint" />
          </mxGeometry>
        </mxCell>
        <mxCell id="N3xLJ3Cg8tny1ivTJ4zS-24" style="edgeStyle=orthogonalEdgeStyle;rounded=0;orthogonalLoop=1;jettySize=auto;html=1;startArrow=classic;startFill=1;endArrow=none;endFill=0;" parent="1" source="N3xLJ3Cg8tny1ivTJ4zS-20" edge="1">
          <mxGeometry relative="1" as="geometry">
            <mxPoint x="240" y="640" as="targetPoint" />
          </mxGeometry>
        </mxCell>
        <mxCell id="N3xLJ3Cg8tny1ivTJ4zS-20" value="Edit" style="rounded=0;whiteSpace=wrap;html=1;" parent="1" vertex="1">
          <mxGeometry x="215" y="660" width="50" height="30" as="geometry" />
        </mxCell>
        <mxCell id="N3xLJ3Cg8tny1ivTJ4zS-23" style="edgeStyle=orthogonalEdgeStyle;rounded=0;orthogonalLoop=1;jettySize=auto;html=1;startArrow=classic;startFill=1;endArrow=none;endFill=0;" parent="1" source="N3xLJ3Cg8tny1ivTJ4zS-21" edge="1">
          <mxGeometry relative="1" as="geometry">
            <mxPoint x="175" y="640" as="targetPoint" />
          </mxGeometry>
        </mxCell>
        <mxCell id="N3xLJ3Cg8tny1ivTJ4zS-21" value="Tambah" style="rounded=0;whiteSpace=wrap;html=1;" parent="1" vertex="1">
          <mxGeometry x="140" y="660" width="50" height="30" as="geometry" />
        </mxCell>
        <mxCell id="N3xLJ3Cg8tny1ivTJ4zS-25" style="edgeStyle=orthogonalEdgeStyle;rounded=0;orthogonalLoop=1;jettySize=auto;html=1;startArrow=classic;startFill=1;endArrow=none;endFill=0;" parent="1" source="N3xLJ3Cg8tny1ivTJ4zS-22" edge="1">
          <mxGeometry relative="1" as="geometry">
            <mxPoint x="305" y="640" as="targetPoint" />
          </mxGeometry>
        </mxCell>
        <mxCell id="N3xLJ3Cg8tny1ivTJ4zS-22" value="Hapus" style="rounded=0;whiteSpace=wrap;html=1;" parent="1" vertex="1">
          <mxGeometry x="290" y="660" width="50" height="30" as="geometry" />
        </mxCell>
        <mxCell id="N3xLJ3Cg8tny1ivTJ4zS-26" value="" style="endArrow=none;html=1;" parent="1" edge="1">
          <mxGeometry width="50" height="50" relative="1" as="geometry">
            <mxPoint x="390" y="640" as="sourcePoint" />
            <mxPoint x="530" y="640" as="targetPoint" />
          </mxGeometry>
        </mxCell>
        <mxCell id="N3xLJ3Cg8tny1ivTJ4zS-27" style="edgeStyle=orthogonalEdgeStyle;rounded=0;orthogonalLoop=1;jettySize=auto;html=1;startArrow=classic;startFill=1;endArrow=none;endFill=0;" parent="1" source="N3xLJ3Cg8tny1ivTJ4zS-28" edge="1">
          <mxGeometry relative="1" as="geometry">
            <mxPoint x="460" y="640" as="targetPoint" />
          </mxGeometry>
        </mxCell>
        <mxCell id="N3xLJ3Cg8tny1ivTJ4zS-28" value="Edit" style="rounded=0;whiteSpace=wrap;html=1;" parent="1" vertex="1">
          <mxGeometry x="435" y="660" width="50" height="30" as="geometry" />
        </mxCell>
        <mxCell id="N3xLJ3Cg8tny1ivTJ4zS-29" style="edgeStyle=orthogonalEdgeStyle;rounded=0;orthogonalLoop=1;jettySize=auto;html=1;startArrow=classic;startFill=1;endArrow=none;endFill=0;" parent="1" source="N3xLJ3Cg8tny1ivTJ4zS-30" edge="1">
          <mxGeometry relative="1" as="geometry">
            <mxPoint x="395" y="640" as="targetPoint" />
          </mxGeometry>
        </mxCell>
        <mxCell id="N3xLJ3Cg8tny1ivTJ4zS-30" value="Tambah" style="rounded=0;whiteSpace=wrap;html=1;" parent="1" vertex="1">
          <mxGeometry x="360" y="660" width="50" height="30" as="geometry" />
        </mxCell>
        <mxCell id="N3xLJ3Cg8tny1ivTJ4zS-31" style="edgeStyle=orthogonalEdgeStyle;rounded=0;orthogonalLoop=1;jettySize=auto;html=1;startArrow=classic;startFill=1;endArrow=none;endFill=0;" parent="1" source="N3xLJ3Cg8tny1ivTJ4zS-32" edge="1">
          <mxGeometry relative="1" as="geometry">
            <mxPoint x="525" y="640" as="targetPoint" />
          </mxGeometry>
        </mxCell>
        <mxCell id="N3xLJ3Cg8tny1ivTJ4zS-32" value="Hapus" style="rounded=0;whiteSpace=wrap;html=1;" parent="1" vertex="1">
          <mxGeometry x="510" y="660" width="50" height="30" as="geometry" />
        </mxCell>
        <mxCell id="N3xLJ3Cg8tny1ivTJ4zS-36" value="" style="edgeStyle=orthogonalEdgeStyle;rounded=0;orthogonalLoop=1;jettySize=auto;html=1;" parent="1" source="N3xLJ3Cg8tny1ivTJ4zS-37" target="N3xLJ3Cg8tny1ivTJ4zS-39" edge="1">
          <mxGeometry relative="1" as="geometry" />
        </mxCell>
        <mxCell id="N3xLJ3Cg8tny1ivTJ4zS-37" value="User" style="rounded=0;whiteSpace=wrap;html=1;" parent="1" vertex="1">
          <mxGeometry x="1165" y="80" width="120" height="60" as="geometry" />
        </mxCell>
        <mxCell id="N3xLJ3Cg8tny1ivTJ4zS-38" value="" style="edgeStyle=orthogonalEdgeStyle;rounded=0;orthogonalLoop=1;jettySize=auto;html=1;" parent="1" source="N3xLJ3Cg8tny1ivTJ4zS-39" target="N3xLJ3Cg8tny1ivTJ4zS-41" edge="1">
          <mxGeometry relative="1" as="geometry" />
        </mxCell>
        <mxCell id="N3xLJ3Cg8tny1ivTJ4zS-39" value="Login" style="whiteSpace=wrap;html=1;rounded=0;" parent="1" vertex="1">
          <mxGeometry x="1165" y="220" width="120" height="60" as="geometry" />
        </mxCell>
        <mxCell id="N3xLJ3Cg8tny1ivTJ4zS-40" style="edgeStyle=orthogonalEdgeStyle;rounded=0;orthogonalLoop=1;jettySize=auto;html=1;startArrow=none;startFill=0;endArrow=none;endFill=0;" parent="1" source="N3xLJ3Cg8tny1ivTJ4zS-41" edge="1">
          <mxGeometry relative="1" as="geometry">
            <mxPoint x="1225.0000000000002" y="470" as="targetPoint" />
          </mxGeometry>
        </mxCell>
        <mxCell id="N3xLJ3Cg8tny1ivTJ4zS-41" value="Dashboard" style="whiteSpace=wrap;html=1;rounded=0;" parent="1" vertex="1">
          <mxGeometry x="1165" y="360" width="120" height="60" as="geometry" />
        </mxCell>
        <mxCell id="N3xLJ3Cg8tny1ivTJ4zS-42" value="" style="endArrow=none;html=1;" parent="1" edge="1">
          <mxGeometry width="50" height="50" relative="1" as="geometry">
            <mxPoint x="1160" y="470" as="sourcePoint" />
            <mxPoint x="1430" y="470" as="targetPoint" />
          </mxGeometry>
        </mxCell>
        <mxCell id="N3xLJ3Cg8tny1ivTJ4zS-51" style="edgeStyle=orthogonalEdgeStyle;rounded=0;orthogonalLoop=1;jettySize=auto;html=1;startArrow=classic;startFill=1;endArrow=none;endFill=0;" parent="1" source="N3xLJ3Cg8tny1ivTJ4zS-53" edge="1">
          <mxGeometry relative="1" as="geometry">
            <mxPoint x="1430" y="470" as="targetPoint" />
          </mxGeometry>
        </mxCell>
        <mxCell id="N3xLJ3Cg8tny1ivTJ4zS-52" style="edgeStyle=orthogonalEdgeStyle;rounded=0;orthogonalLoop=1;jettySize=auto;html=1;entryX=1;entryY=0.25;entryDx=0;entryDy=0;startArrow=none;startFill=0;endArrow=classic;endFill=1;" parent="1" source="N3xLJ3Cg8tny1ivTJ4zS-53" target="N3xLJ3Cg8tny1ivTJ4zS-39" edge="1">
          <mxGeometry relative="1" as="geometry">
            <Array as="points">
              <mxPoint x="1510" y="550" />
              <mxPoint x="1510" y="235" />
            </Array>
          </mxGeometry>
        </mxCell>
        <mxCell id="N3xLJ3Cg8tny1ivTJ4zS-53" value="Logout" style="rounded=0;whiteSpace=wrap;html=1;" parent="1" vertex="1">
          <mxGeometry x="1370" y="520" width="120" height="60" as="geometry" />
        </mxCell>
        <mxCell id="N3xLJ3Cg8tny1ivTJ4zS-69" style="edgeStyle=orthogonalEdgeStyle;rounded=0;orthogonalLoop=1;jettySize=auto;html=1;startArrow=classic;startFill=1;endArrow=classic;endFill=1;" parent="1" source="N3xLJ3Cg8tny1ivTJ4zS-68" edge="1">
          <mxGeometry relative="1" as="geometry">
            <mxPoint x="1160" y="470" as="targetPoint" />
          </mxGeometry>
        </mxCell>
        <mxCell id="N3xLJ3Cg8tny1ivTJ4zS-70" style="edgeStyle=orthogonalEdgeStyle;rounded=0;orthogonalLoop=1;jettySize=auto;html=1;entryX=0;entryY=0.5;entryDx=0;entryDy=0;startArrow=classic;startFill=1;endArrow=classic;endFill=1;" parent="1" source="N3xLJ3Cg8tny1ivTJ4zS-68" target="N3xLJ3Cg8tny1ivTJ4zS-53" edge="1">
          <mxGeometry relative="1" as="geometry" />
        </mxCell>
        <mxCell id="N3xLJ3Cg8tny1ivTJ4zS-68" value="KRS" style="rounded=0;whiteSpace=wrap;html=1;" parent="1" vertex="1">
          <mxGeometry x="1100" y="520" width="120" height="60" as="geometry" />
        </mxCell>
        <mxCell id="U1vh-i7uRRmZfOwkR0CU-11" value="&lt;u&gt;NPM&lt;/u&gt;" style="ellipse;whiteSpace=wrap;html=1;" parent="1" vertex="1">
          <mxGeometry x="920" y="730" width="120" height="80" as="geometry" />
        </mxCell>
        <mxCell id="U1vh-i7uRRmZfOwkR0CU-14" value="Kelas" style="ellipse;whiteSpace=wrap;html=1;" parent="1" vertex="1">
          <mxGeometry x="1070" y="720" width="120" height="80" as="geometry" />
        </mxCell>
        <mxCell id="U1vh-i7uRRmZfOwkR0CU-17" style="edgeStyle=orthogonalEdgeStyle;rounded=0;orthogonalLoop=1;jettySize=auto;html=1;endArrow=none;endFill=0;" parent="1" source="U1vh-i7uRRmZfOwkR0CU-15" target="U1vh-i7uRRmZfOwkR0CU-11" edge="1">
          <mxGeometry relative="1" as="geometry" />
        </mxCell>
        <mxCell id="U1vh-i7uRRmZfOwkR0CU-18" style="edgeStyle=orthogonalEdgeStyle;rounded=0;orthogonalLoop=1;jettySize=auto;html=1;endArrow=none;endFill=0;" parent="1" source="U1vh-i7uRRmZfOwkR0CU-15" target="U1vh-i7uRRmZfOwkR0CU-12" edge="1">
          <mxGeometry relative="1" as="geometry" />
        </mxCell>
        <mxCell id="U1vh-i7uRRmZfOwkR0CU-19" style="edgeStyle=orthogonalEdgeStyle;rounded=0;orthogonalLoop=1;jettySize=auto;html=1;endArrow=none;endFill=0;" parent="1" source="U1vh-i7uRRmZfOwkR0CU-15" target="U1vh-i7uRRmZfOwkR0CU-14" edge="1">
          <mxGeometry relative="1" as="geometry" />
        </mxCell>
        <mxCell id="U1vh-i7uRRmZfOwkR0CU-15" value="Mahasiswa" style="rounded=0;whiteSpace=wrap;html=1;" parent="1" vertex="1">
          <mxGeometry x="1000" y="830" width="120" height="60" as="geometry" />
        </mxCell>
        <mxCell id="U1vh-i7uRRmZfOwkR0CU-12" value="nama_mahasiswa" style="ellipse;whiteSpace=wrap;html=1;" parent="1" vertex="1">
          <mxGeometry x="1000" y="690" width="120" height="80" as="geometry" />
        </mxCell>
        <mxCell id="2SUtAJHG8SZI3CI0aYSA-4" value="" style="edgeStyle=orthogonalEdgeStyle;rounded=0;orthogonalLoop=1;jettySize=auto;html=1;endArrow=none;endFill=0;" edge="1" parent="1" source="U1vh-i7uRRmZfOwkR0CU-20" target="2SUtAJHG8SZI3CI0aYSA-1">
          <mxGeometry relative="1" as="geometry" />
        </mxCell>
        <mxCell id="U1vh-i7uRRmZfOwkR0CU-20" value="&lt;u&gt;kd_krs&lt;/u&gt;" style="ellipse;whiteSpace=wrap;html=1;" parent="1" vertex="1">
          <mxGeometry x="1220" y="700" width="120" height="80" as="geometry" />
        </mxCell>
        <mxCell id="U1vh-i7uRRmZfOwkR0CU-43" style="edgeStyle=orthogonalEdgeStyle;rounded=0;orthogonalLoop=1;jettySize=auto;html=1;entryX=1;entryY=0.5;entryDx=0;entryDy=0;endArrow=none;endFill=0;exitX=0;exitY=0.5;exitDx=0;exitDy=0;" parent="1" source="2SUtAJHG8SZI3CI0aYSA-1" target="U1vh-i7uRRmZfOwkR0CU-15" edge="1">
          <mxGeometry relative="1" as="geometry">
            <mxPoint x="1145" y="810" as="targetPoint" />
            <mxPoint x="1168" y="860" as="sourcePoint" />
          </mxGeometry>
        </mxCell>
        <mxCell id="U1vh-i7uRRmZfOwkR0CU-26" value="kd_mahasiswa" style="ellipse;whiteSpace=wrap;html=1;" parent="1" vertex="1">
          <mxGeometry x="1300" y="660" width="120" height="80" as="geometry" />
        </mxCell>
        <mxCell id="U1vh-i7uRRmZfOwkR0CU-36" value="&lt;u&gt;kd_matkul&lt;/u&gt;" style="ellipse;whiteSpace=wrap;html=1;" parent="1" vertex="1">
          <mxGeometry x="1440" y="690" width="120" height="80" as="geometry" />
        </mxCell>
        <mxCell id="U1vh-i7uRRmZfOwkR0CU-37" value="SKS" style="ellipse;whiteSpace=wrap;html=1;" parent="1" vertex="1">
          <mxGeometry x="1590" y="680" width="120" height="80" as="geometry" />
        </mxCell>
        <mxCell id="U1vh-i7uRRmZfOwkR0CU-38" style="edgeStyle=orthogonalEdgeStyle;rounded=0;orthogonalLoop=1;jettySize=auto;html=1;endArrow=none;endFill=0;" parent="1" source="U1vh-i7uRRmZfOwkR0CU-41" target="U1vh-i7uRRmZfOwkR0CU-36" edge="1">
          <mxGeometry relative="1" as="geometry" />
        </mxCell>
        <mxCell id="U1vh-i7uRRmZfOwkR0CU-39" style="edgeStyle=orthogonalEdgeStyle;rounded=0;orthogonalLoop=1;jettySize=auto;html=1;endArrow=none;endFill=0;" parent="1" source="U1vh-i7uRRmZfOwkR0CU-41" target="U1vh-i7uRRmZfOwkR0CU-42" edge="1">
          <mxGeometry relative="1" as="geometry" />
        </mxCell>
        <mxCell id="U1vh-i7uRRmZfOwkR0CU-40" style="edgeStyle=orthogonalEdgeStyle;rounded=0;orthogonalLoop=1;jettySize=auto;html=1;endArrow=none;endFill=0;" parent="1" source="U1vh-i7uRRmZfOwkR0CU-41" target="U1vh-i7uRRmZfOwkR0CU-37" edge="1">
          <mxGeometry relative="1" as="geometry" />
        </mxCell>
        <mxCell id="U1vh-i7uRRmZfOwkR0CU-41" value="Mata Kuliah" style="rounded=0;whiteSpace=wrap;html=1;" parent="1" vertex="1">
          <mxGeometry x="1520" y="810" width="120" height="60" as="geometry" />
        </mxCell>
        <mxCell id="U1vh-i7uRRmZfOwkR0CU-42" value="nama_matkul" style="ellipse;whiteSpace=wrap;html=1;" parent="1" vertex="1">
          <mxGeometry x="1520" y="650" width="120" height="80" as="geometry" />
        </mxCell>
        <mxCell id="U1vh-i7uRRmZfOwkR0CU-45" value="&lt;u&gt;id_list_isi&lt;/u&gt;" style="ellipse;whiteSpace=wrap;html=1;" parent="1" vertex="1">
          <mxGeometry x="1180" y="1030" width="120" height="80" as="geometry" />
        </mxCell>
        <mxCell id="U1vh-i7uRRmZfOwkR0CU-47" style="edgeStyle=orthogonalEdgeStyle;rounded=0;orthogonalLoop=1;jettySize=auto;html=1;endArrow=none;endFill=0;" parent="1" source="U1vh-i7uRRmZfOwkR0CU-50" target="U1vh-i7uRRmZfOwkR0CU-45" edge="1">
          <mxGeometry relative="1" as="geometry" />
        </mxCell>
        <mxCell id="U1vh-i7uRRmZfOwkR0CU-48" style="edgeStyle=orthogonalEdgeStyle;rounded=0;orthogonalLoop=1;jettySize=auto;html=1;endArrow=none;endFill=0;" parent="1" source="U1vh-i7uRRmZfOwkR0CU-50" target="U1vh-i7uRRmZfOwkR0CU-51" edge="1">
          <mxGeometry relative="1" as="geometry" />
        </mxCell>
        <mxCell id="U1vh-i7uRRmZfOwkR0CU-49" style="edgeStyle=orthogonalEdgeStyle;rounded=0;orthogonalLoop=1;jettySize=auto;html=1;endArrow=none;endFill=0;" parent="1" source="U1vh-i7uRRmZfOwkR0CU-50" target="U1vh-i7uRRmZfOwkR0CU-46" edge="1">
          <mxGeometry relative="1" as="geometry" />
        </mxCell>
        <mxCell id="U1vh-i7uRRmZfOwkR0CU-50" value="list_isi_krs" style="rounded=0;whiteSpace=wrap;html=1;" parent="1" vertex="1">
          <mxGeometry x="1255" y="930" width="120" height="60" as="geometry" />
        </mxCell>
        <mxCell id="U1vh-i7uRRmZfOwkR0CU-51" value="kd_krs" style="ellipse;whiteSpace=wrap;html=1;" parent="1" vertex="1">
          <mxGeometry x="1255" y="1060" width="120" height="80" as="geometry" />
        </mxCell>
        <mxCell id="U1vh-i7uRRmZfOwkR0CU-46" value="kd_matakuliah" style="ellipse;whiteSpace=wrap;html=1;" parent="1" vertex="1">
          <mxGeometry x="1330" y="1030" width="120" height="80" as="geometry" />
        </mxCell>
        <mxCell id="2SUtAJHG8SZI3CI0aYSA-3" value="" style="edgeStyle=orthogonalEdgeStyle;rounded=0;orthogonalLoop=1;jettySize=auto;html=1;endArrow=none;endFill=0;" edge="1" parent="1" source="2SUtAJHG8SZI3CI0aYSA-1" target="U1vh-i7uRRmZfOwkR0CU-26">
          <mxGeometry relative="1" as="geometry" />
        </mxCell>
        <mxCell id="2SUtAJHG8SZI3CI0aYSA-5" style="edgeStyle=orthogonalEdgeStyle;rounded=0;orthogonalLoop=1;jettySize=auto;html=1;entryX=0.5;entryY=0;entryDx=0;entryDy=0;endArrow=none;endFill=0;" edge="1" parent="1" source="2SUtAJHG8SZI3CI0aYSA-1" target="U1vh-i7uRRmZfOwkR0CU-50">
          <mxGeometry relative="1" as="geometry" />
        </mxCell>
        <mxCell id="2SUtAJHG8SZI3CI0aYSA-1" value="KRS" style="rhombus;whiteSpace=wrap;html=1;" vertex="1" parent="1">
          <mxGeometry x="1275" y="820" width="80" height="80" as="geometry" />
        </mxCell>
      </root>
    </mxGraphModel>
  </diagram>
</mxfile>
